<svg width="152" height="152" viewBox="0 0 152 152" fill="none" xmlns="http://www.w3.org/2000/svg">
<circle cx="76" cy="76" r="76" fill="#551A8B"/>
<path d="M8.76136 92.5455V68.5455H14.2614V71.5341H14.4318C14.6591 71.0038 14.9811 70.4924 15.3977 70C15.822 69.5076 16.3598 69.1061 17.0114 68.7955C17.6705 68.4773 18.4583 68.3182 19.375 68.3182C20.5871 68.3182 21.7197 68.6364 22.7727 69.2727C23.8333 69.9091 24.6894 70.8902 25.3409 72.2159C25.9924 73.5417 26.3182 75.2311 26.3182 77.2841C26.3182 79.2614 26.0038 80.9167 25.375 82.25C24.7538 83.5833 23.9129 84.5833 22.8523 85.25C21.7992 85.9167 20.6288 86.25 19.3409 86.25C18.4621 86.25 17.7008 86.1061 17.0568 85.8182C16.4129 85.5303 15.8712 85.1515 15.4318 84.6818C15 84.2121 14.6667 83.7083 14.4318 83.1705H14.3182V92.5455H8.76136ZM14.2045 77.2727C14.2045 78.2121 14.3295 79.0303 14.5795 79.7273C14.8371 80.4242 15.2045 80.9659 15.6818 81.3523C16.1667 81.7311 16.7462 81.9205 17.4205 81.9205C18.1023 81.9205 18.6818 81.7311 19.1591 81.3523C19.6364 80.9659 19.9962 80.4242 20.2386 79.7273C20.4886 79.0303 20.6136 78.2121 20.6136 77.2727C20.6136 76.3333 20.4886 75.5189 20.2386 74.8295C19.9962 74.1402 19.6364 73.6061 19.1591 73.2273C18.6894 72.8485 18.1098 72.6591 17.4205 72.6591C16.7386 72.6591 16.1591 72.8447 15.6818 73.2159C15.2045 73.5871 14.8371 74.1174 14.5795 74.8068C14.3295 75.4962 14.2045 76.3182 14.2045 77.2727ZM34.7869 76.0455V86H29.2301V62.7273H34.6051V71.75H34.7983C35.1922 70.6742 35.8362 69.8333 36.7301 69.2273C37.6316 68.6212 38.7339 68.3182 40.0369 68.3182C41.2642 68.3182 42.3324 68.5909 43.2415 69.1364C44.1506 69.6742 44.8551 70.4356 45.3551 71.4205C45.8627 72.4053 46.1127 73.5568 46.1051 74.875V86H40.5483V75.9659C40.5559 74.9962 40.3134 74.2386 39.821 73.6932C39.3286 73.1477 38.6354 72.875 37.7415 72.875C37.1581 72.875 36.643 73.0038 36.196 73.2614C35.7566 73.5114 35.4119 73.8712 35.1619 74.3409C34.9195 74.8106 34.7945 75.3788 34.7869 76.0455ZM54.4943 86.2955C53.3807 86.2955 52.392 86.1098 51.5284 85.7386C50.6723 85.3598 49.9943 84.7917 49.4943 84.0341C49.0019 83.2689 48.7557 82.3106 48.7557 81.1591C48.7557 80.1894 48.9261 79.3712 49.267 78.7045C49.608 78.0379 50.0777 77.4962 50.6761 77.0795C51.2746 76.6629 51.964 76.3485 52.7443 76.1364C53.5246 75.9167 54.358 75.7689 55.2443 75.6932C56.2367 75.6023 57.036 75.5076 57.642 75.4091C58.2481 75.303 58.6875 75.1553 58.9602 74.9659C59.2405 74.7689 59.3807 74.4924 59.3807 74.1364V74.0795C59.3807 73.4962 59.1799 73.0455 58.7784 72.7273C58.3769 72.4091 57.8352 72.25 57.1534 72.25C56.4186 72.25 55.8277 72.4091 55.3807 72.7273C54.9337 73.0455 54.6496 73.4848 54.5284 74.0455L49.4034 73.8636C49.5549 72.803 49.9451 71.8561 50.5739 71.0227C51.2102 70.1818 52.0814 69.5227 53.1875 69.0455C54.3011 68.5606 55.6383 68.3182 57.1989 68.3182C58.3125 68.3182 59.339 68.4508 60.2784 68.7159C61.2178 68.9735 62.036 69.3523 62.733 69.8523C63.4299 70.3447 63.9678 70.9508 64.3466 71.6705C64.733 72.3902 64.9261 73.2121 64.9261 74.1364V86H59.6989V83.5682H59.5625C59.2519 84.1591 58.8542 84.6591 58.3693 85.0682C57.892 85.4773 57.3277 85.7841 56.6761 85.9886C56.0322 86.1932 55.3049 86.2955 54.4943 86.2955ZM56.2102 82.6591C56.8087 82.6591 57.3466 82.5379 57.8239 82.2955C58.3087 82.053 58.6951 81.7197 58.983 81.2955C59.2708 80.8636 59.4148 80.3636 59.4148 79.7955V78.1364C59.2557 78.2197 59.0625 78.2955 58.8352 78.3636C58.6155 78.4318 58.3731 78.4962 58.108 78.5568C57.8428 78.6174 57.5701 78.6705 57.2898 78.7159C57.0095 78.7614 56.7405 78.803 56.483 78.8409C55.9602 78.9242 55.5133 79.053 55.142 79.2273C54.7784 79.4015 54.4981 79.6288 54.3011 79.9091C54.1117 80.1818 54.017 80.5076 54.017 80.8864C54.017 81.4621 54.2216 81.9015 54.6307 82.2045C55.0473 82.5076 55.5739 82.6591 56.2102 82.6591ZM68.3239 86V68.5455H73.608V71.75H73.8011C74.1648 70.6894 74.7784 69.8523 75.642 69.2386C76.5057 68.625 77.536 68.3182 78.733 68.3182C79.9451 68.3182 80.983 68.6288 81.8466 69.25C82.7102 69.8712 83.2595 70.7045 83.4943 71.75H83.6761C84.0019 70.7121 84.6383 69.8826 85.5852 69.2614C86.5322 68.6326 87.6496 68.3182 88.9375 68.3182C90.589 68.3182 91.9299 68.8485 92.9602 69.9091C93.9905 70.9621 94.5057 72.4091 94.5057 74.25V86H88.9489V75.5227C88.9489 74.6515 88.7254 73.9886 88.2784 73.5341C87.8314 73.072 87.2519 72.8409 86.5398 72.8409C85.7746 72.8409 85.1723 73.0909 84.733 73.5909C84.3011 74.0833 84.0852 74.7462 84.0852 75.5795V86H78.7443V75.4659C78.7443 74.6553 78.5246 74.0152 78.0852 73.5455C77.6458 73.0758 77.0663 72.8409 76.3466 72.8409C75.8617 72.8409 75.4337 72.9583 75.0625 73.1932C74.6913 73.4205 74.3996 73.7462 74.1875 74.1705C73.983 74.5947 73.8807 75.0947 73.8807 75.6705V86H68.3239ZM97.9489 86V68.5455H103.233V71.75H103.426C103.79 70.6894 104.403 69.8523 105.267 69.2386C106.131 68.625 107.161 68.3182 108.358 68.3182C109.57 68.3182 110.608 68.6288 111.472 69.25C112.335 69.8712 112.884 70.7045 113.119 71.75H113.301C113.627 70.7121 114.263 69.8826 115.21 69.2614C116.157 68.6326 117.275 68.3182 118.562 68.3182C120.214 68.3182 121.555 68.8485 122.585 69.9091C123.616 70.9621 124.131 72.4091 124.131 74.25V86H118.574V75.5227C118.574 74.6515 118.35 73.9886 117.903 73.5341C117.456 73.072 116.877 72.8409 116.165 72.8409C115.4 72.8409 114.797 73.0909 114.358 73.5909C113.926 74.0833 113.71 74.7462 113.71 75.5795V86H108.369V75.4659C108.369 74.6553 108.15 74.0152 107.71 73.5455C107.271 73.0758 106.691 72.8409 105.972 72.8409C105.487 72.8409 105.059 72.9583 104.688 73.1932C104.316 73.4205 104.025 73.7462 103.812 74.1705C103.608 74.5947 103.506 75.0947 103.506 75.6705V86H97.9489ZM135.733 86.3295C133.907 86.3295 132.331 85.9697 131.006 85.25C129.688 84.5227 128.672 83.4886 127.96 82.1477C127.256 80.7992 126.903 79.197 126.903 77.3409C126.903 75.5379 127.259 73.9621 127.972 72.6136C128.684 71.2576 129.688 70.2045 130.983 69.4545C132.278 68.697 133.805 68.3182 135.562 68.3182C136.805 68.3182 137.941 68.5114 138.972 68.8977C140.002 69.2841 140.892 69.8561 141.642 70.6136C142.392 71.3712 142.975 72.3068 143.392 73.4205C143.809 74.5265 144.017 75.7955 144.017 77.2273V78.6136H128.847V75.3864H138.847C138.839 74.7955 138.699 74.2689 138.426 73.8068C138.153 73.3447 137.778 72.9848 137.301 72.7273C136.831 72.4621 136.29 72.3295 135.676 72.3295C135.055 72.3295 134.498 72.4697 134.006 72.75C133.513 73.0227 133.123 73.3977 132.835 73.875C132.547 74.3447 132.396 74.8788 132.381 75.4773V78.7614C132.381 79.4735 132.521 80.0985 132.801 80.6364C133.081 81.1667 133.479 81.5795 133.994 81.875C134.509 82.1705 135.123 82.3182 135.835 82.3182C136.328 82.3182 136.775 82.25 137.176 82.1136C137.578 81.9773 137.922 81.7765 138.21 81.5114C138.498 81.2462 138.714 80.9205 138.858 80.5341L143.96 80.6818C143.748 81.8258 143.282 82.822 142.562 83.6705C141.85 84.5114 140.915 85.1667 139.756 85.6364C138.597 86.0985 137.256 86.3295 135.733 86.3295Z" fill="white"/>
</svg>
