<svg width="22" height="32" viewBox="0 0 22 32" fill="none" xmlns="http://www.w3.org/2000/svg">
<path d="M4.15207 17.3838L8.33871 19.3377L4.393 27.7922L4.37054 27.8403C4.20169 28.2019 4.0411 28.5459 3.94916 28.8147C3.90271 28.9506 3.84064 29.1575 3.83692 29.3852C3.83278 29.6375 3.90496 30.0503 4.28578 30.3419C4.66659 30.6334 5.08387 30.5954 5.32639 30.5256C5.54524 30.4626 5.72882 30.3487 5.84783 30.2685C6.08339 30.1096 6.37354 29.8648 6.67864 29.6075L6.71922 29.5733L18.513 19.6282L18.5663 19.5833C19.0587 19.1682 19.5108 18.7871 19.8205 18.436C20.1528 18.0595 20.4955 17.5259 20.4027 16.8272C20.31 16.1286 19.84 15.7029 19.421 15.426C19.0304 15.1679 18.4946 14.9179 17.911 14.6457C17.89 14.6359 17.869 14.6261 17.8478 14.6162L13.6612 12.6623L17.6069 4.20785C17.6144 4.19178 17.6219 4.17574 17.6294 4.15973C17.7982 3.79807 17.9588 3.45412 18.0508 3.18528C18.0972 3.04945 18.1593 2.84251 18.163 2.6148C18.1671 2.36248 18.095 1.94973 17.7141 1.65816C17.3333 1.36658 16.916 1.40457 16.6735 1.47438C16.4547 1.53738 16.2711 1.65127 16.1521 1.73155C15.9165 1.89044 15.6264 2.13519 15.3213 2.39255C15.3078 2.40393 15.2942 2.41534 15.2807 2.42676L3.48687 12.3718L4.13151 13.1363L3.48687 12.3718C3.46905 12.3869 3.45129 12.4018 3.43357 12.4168C2.94122 12.8318 2.48914 13.2129 2.17938 13.564C1.84715 13.9405 1.50445 14.4741 1.59718 15.1728C1.68992 15.8714 2.15994 16.2972 2.57887 16.574C2.96949 16.8321 3.50533 17.0821 4.0889 17.3543C4.1099 17.3641 4.13096 17.3739 4.15207 17.3838ZM4.68847 28.6362C4.6885 28.6361 4.68945 28.6356 4.69128 28.6346C4.68936 28.6357 4.68844 28.6362 4.68847 28.6362ZM5.82739 29.5082C5.82736 29.5082 5.82756 29.5073 5.82808 29.5053C5.82767 29.5071 5.82742 29.5081 5.82739 29.5082ZM17.3114 3.36387C17.3114 3.3639 17.3105 3.3644 17.3088 3.36529C17.3106 3.36428 17.3115 3.36384 17.3114 3.36387ZM16.1725 2.49185C16.1726 2.49183 16.1723 2.49279 16.1718 2.49477C16.1723 2.49286 16.1725 2.49187 16.1725 2.49185Z" stroke="#B3B3B3" stroke-width="2"/>
</svg>
