<svg width="29" height="28" viewBox="0 0 29 28" fill="none" xmlns="http://www.w3.org/2000/svg">
<path d="M4.83497 12.0638L11.3496 14.4069C11.8747 14.5958 12.1372 14.6902 12.3096 14.8922C12.482 15.0942 12.5339 15.3684 12.6378 15.9166L13.9266 22.7188C14.3912 25.171 14.6235 26.3972 15.3395 26.4925C16.0556 26.5879 16.6007 25.4652 17.6908 23.22L26.4033 5.27512C27.2593 3.51211 27.6873 2.6306 27.2627 2.13308C26.8382 1.63557 25.9004 1.91951 24.0246 2.4874L4.93232 8.26766C2.54351 8.99088 1.34911 9.35249 1.33059 10.0746C1.31207 10.7968 2.48637 11.2191 4.83497 12.0638Z" stroke="#B3B3B3" stroke-width="2"/>
</svg>
