<svg width="32" height="24" viewBox="0 0 32 24" fill="none" xmlns="http://www.w3.org/2000/svg">
<path d="M25.7771 5.82136C25.5809 8.54476 23.5606 10.6427 21.3575 10.6427C19.1544 10.6427 17.1308 8.54543 16.9379 5.82136C16.7371 2.98814 18.7038 1 21.3575 1C24.0113 1 25.978 3.0397 25.7771 5.82136Z" stroke="#B3B3B3" stroke-width="2" stroke-linecap="round" stroke-linejoin="round"/>
<path d="M21.3575 14.9284C16.9935 14.9284 12.797 17.096 11.7456 21.3174C11.6063 21.8759 11.9566 22.4283 12.5304 22.4283H30.1853C30.7592 22.4283 31.1074 21.8759 30.9701 21.3174C29.9188 17.0284 25.7222 14.9284 21.3575 14.9284Z" stroke="#B3B3B3" stroke-width="2" stroke-miterlimit="10"/>
<path d="M12.2505 7.02268C12.0938 9.19765 10.4613 10.9106 8.70146 10.9106C6.94166 10.9106 5.30641 9.19832 5.1524 7.02268C4.99236 4.75999 6.5814 3.14282 8.70146 3.14282C10.8215 3.14282 12.4106 4.80151 12.2505 7.02268Z" stroke="#B3B3B3" stroke-width="2" stroke-linecap="round" stroke-linejoin="round"/>
<path d="M12.6523 15.0623C11.4436 14.5085 10.1124 14.2956 8.70144 14.2956C5.21935 14.2956 1.86448 16.0266 1.02409 19.3982C0.913603 19.8442 1.19351 20.2855 1.65154 20.2855H9.17019" stroke="#B3B3B3" stroke-width="2" stroke-miterlimit="10" stroke-linecap="round"/>
</svg>
