<svg width="14" height="7" viewBox="0 0 14 7" fill="none" xmlns="http://www.w3.org/2000/svg">
<path d="M3.1863 4.02586L6.91927 0.292893C7.30979 -0.0976311 7.94296 -0.0976311 8.33348 0.292893C8.69397 0.653377 8.7217 1.22061 8.41667 1.6129L8.33348 1.70711L3.89341 6.14718C3.53292 6.50767 2.96569 6.5354 2.5734 6.23037L2.47919 6.14718L0.292893 3.96088C-0.0976311 3.57036 -0.0976311 2.93719 0.292893 2.54667C0.653377 2.18618 1.22061 2.15845 1.6129 2.46348L1.70711 2.54667L3.1863 4.02586L6.91927 0.292893L3.1863 4.02586Z" fill="#7428BA"/>
<path d="M7.68679 4.27965L11.4198 0.546677C11.8103 0.156153 12.4434 0.156153 12.834 0.546677C13.1945 0.907161 13.2222 1.47439 12.9172 1.86668L12.834 1.96089L8.3939 6.40097C8.03341 6.76145 7.46618 6.78918 7.07389 6.48416L6.97968 6.40097L4.79338 4.21466C4.40286 3.82414 4.40286 3.19098 4.79338 2.80045C5.15387 2.43997 5.7211 2.41224 6.11339 2.71726L6.2076 2.80045L7.68679 4.27965L11.4198 0.546677L7.68679 4.27965Z" fill="#7428BA"/>
</svg>
